<svg width="981" height="521.5" xmlns="http://www.w3.org/2000/svg" xmlns:xlink="http://www.w3.org/1999/xlink" fill="#ffffff"><defs><style>
  text {
    fill: #212529;
    font-family: Helvetica Neue, Helvetica, Arial, sans-serif;
    font-size: 16px;
  }

  marker, text {
    fill-opacity: 1;
  }

  * {
    overflow: visible;
  }
</style></defs><svg x="15" y="35" width="200" height="40" class="IrisSession" fill="#fed330"><g><rect width="100%" height="40" stroke="none" fill="#fed330" class="sc-fqkvVR kRgkwu"></rect><rect y="40" width="100%" height="0" stroke="none" fill="white" class="sc-fqkvVR eDtKfR"></rect><svg height="40"><text x="50%" y="50%" dominant-baseline="middle" text-anchor="middle" font-weight="bold" pointer-events="none">IrisSession</text></svg><rect width="100%" height="100%" stroke="black" fill="none" class="sc-fqkvVR jAaomD"></rect></g></svg><svg x="305" y="35" width="200" height="70" class="IrisCodeEditorSession" fill="#45aaf2"><g><rect width="100%" height="40" stroke="none" fill="#45aaf2" class="sc-fqkvVR eZlQyU"></rect><rect y="40" width="100%" height="30" stroke="none" fill="white" class="sc-fqkvVR eDtKfR"></rect><svg height="40"><text x="50%" y="50%" dominant-baseline="middle" text-anchor="middle" font-weight="bold" pointer-events="none">IrisCodeEditorSession</text></svg><svg x="0" y="40.5" width="199" height="30" class="programmingExercise" fill="#45aaf2"><g><rect width="100%" height="100%" stroke="none" fill="#45aaf2" class="sc-fqkvVR eZlQyU"></rect><text x="10" y="50%" dominant-baseline="middle" text-anchor="start" font-weight="normal" pointer-events="none">programmingExercise</text></g></svg><rect width="100%" height="100%" stroke="black" fill="none" class="sc-fqkvVR jAaomD"></rect><path d="M 0 40 H 200" stroke="black" fill="white" class="sc-gEvEer fkqzOi"></path></g></svg><svg x="15" y="175" width="200" height="80" class="IrisMessage" fill="#ffffff"><g><rect width="100%" height="40" stroke="none" fill="white" class="sc-fqkvVR eDtKfR"></rect><rect y="40" width="100%" height="40" stroke="none" fill="white" class="sc-fqkvVR eDtKfR"></rect><svg height="40"><text x="50%" y="50%" dominant-baseline="middle" text-anchor="middle" font-weight="bold" pointer-events="none">IrisMessage</text></svg><svg x="0" y="40.5" width="199" height="40" class="sender" fill="#ffffff"><g><rect width="100%" height="100%" stroke="none" fill="white" class="sc-fqkvVR eDtKfR"></rect><text x="10" y="50%" dominant-baseline="middle" text-anchor="start" font-weight="normal" pointer-events="none">sender</text></g></svg><rect width="100%" height="100%" stroke="black" fill="none" class="sc-fqkvVR jAaomD"></rect><path d="M 0 40 H 200" stroke="black" fill="white" class="sc-gEvEer fkqzOi"></path></g></svg><svg x="15" y="305" width="200" height="40" class="IrisMessageContent" fill="#fed330"><g><rect width="100%" height="40" stroke="none" fill="#fed330" class="sc-fqkvVR kRgkwu"></rect><rect y="40" width="100%" height="0" stroke="none" fill="white" class="sc-fqkvVR eDtKfR"></rect><svg height="40"><text x="50%" y="50%" dominant-baseline="middle" text-anchor="middle" font-weight="bold" pointer-events="none" style="fill: black;">IrisMessageContent</text></svg><rect width="100%" height="100%" stroke="black" fill="none" class="sc-fqkvVR egfvhJ"></rect></g></svg><svg x="15" y="425" width="200" height="80" class="IrisTextContent" fill="#45aaf2"><g><rect width="100%" height="40" stroke="none" fill="#45aaf2" class="sc-fqkvVR eZlQyU"></rect><rect y="40" width="100%" height="40" stroke="none" fill="white" class="sc-fqkvVR eDtKfR"></rect><svg height="40"><text x="50%" y="50%" dominant-baseline="middle" text-anchor="middle" font-weight="bold" pointer-events="none">IrisTextContent</text></svg><svg x="0" y="40.5" width="199" height="40" class="textContent" fill="#45aaf2"><g><rect width="100%" height="100%" stroke="none" fill="#45aaf2" class="sc-fqkvVR eZlQyU"></rect><text x="10" y="50%" dominant-baseline="middle" text-anchor="start" font-weight="normal" pointer-events="none">textContent</text></g></svg><rect width="100%" height="100%" stroke="black" fill="none" class="sc-fqkvVR jAaomD"></rect><path d="M 0 40 H 200" stroke="black" fill="white" class="sc-gEvEer fkqzOi"></path></g></svg><svg x="305" y="425" width="200" height="80" class="IrisExercisePlan" fill="#45aaf2"><g><rect width="100%" height="40" stroke="none" fill="#45aaf2" class="sc-fqkvVR eZlQyU"></rect><rect y="40" width="100%" height="40" stroke="none" fill="white" class="sc-fqkvVR eDtKfR"></rect><svg height="40"><text x="50%" y="50%" dominant-baseline="middle" text-anchor="middle" font-weight="bold" pointer-events="none" style="fill: black;">IrisExercisePlan</text></svg><svg x="0" y="40.5" width="199" height="40" class="exercisePlanSteps" fill="#45aaf2"><g><rect width="100%" height="100%" stroke="none" fill="#45aaf2" class="sc-fqkvVR eZlQyU"></rect><text x="10" y="50%" dominant-baseline="middle" text-anchor="start" font-weight="normal" pointer-events="none">exercisePlanSteps</text></g></svg><rect width="100%" height="100%" stroke="black" fill="none" class="sc-fqkvVR jAaomD"></rect><path d="M 0 40 H 200" stroke="black" fill="white" class="sc-gEvEer fkqzOi"></path></g></svg><svg x="305" y="175" width="200" height="140" class="IrisExercisePlanStep" fill="#45aaf2"><g><rect width="100%" height="40" stroke="none" fill="#45aaf2" class="sc-fqkvVR eZlQyU"></rect><rect y="40" width="100%" height="100" stroke="none" fill="white" class="sc-fqkvVR eDtKfR"></rect><svg height="40"><text x="50%" y="50%" dominant-baseline="middle" text-anchor="middle" font-weight="bold" pointer-events="none">IrisExercisePlanStep</text></svg><svg x="0" y="40.5" width="199" height="40" class="exerciseComponent" fill="#45aaf2"><g><rect width="100%" height="100%" stroke="none" fill="#45aaf2" class="sc-fqkvVR eZlQyU"></rect><text x="10" y="50%" dominant-baseline="middle" text-anchor="start" font-weight="normal" pointer-events="none">exerciseComponent</text></g></svg><svg x="0" y="80.5" width="199" height="30" class="instructions" fill="#45aaf2"><g><rect width="100%" height="100%" stroke="none" fill="#45aaf2" class="sc-fqkvVR eZlQyU"></rect><text x="10" y="50%" dominant-baseline="middle" text-anchor="start" font-weight="normal" pointer-events="none">instructions</text></g></svg><svg x="0" y="110.5" width="199" height="30" class="executionStage" fill="#45aaf2"><g><rect width="100%" height="100%" stroke="none" fill="#45aaf2" class="sc-fqkvVR eZlQyU"></rect><text x="10" y="50%" dominant-baseline="middle" text-anchor="start" font-weight="normal" pointer-events="none">executionStage</text></g></svg><rect width="100%" height="100%" stroke="black" fill="none" class="sc-fqkvVR jAaomD"></rect><path d="M 0 40 H 200" stroke="black" fill="white" class="sc-gEvEer fkqzOi"></path></g></svg><svg x="595" y="35" width="210" height="170" class="ExerciseComponent" fill="#45aaf2"><g><rect width="100%" height="40" stroke="none" fill="#45aaf2" class="sc-fqkvVR eZlQyU"></rect><rect y="40" width="100%" height="130" stroke="none" fill="white" class="sc-fqkvVR eDtKfR"></rect><svg height="40"><text x="50%" y="50%" dominant-baseline="middle" text-anchor="middle" font-weight="bold" pointer-events="none">ExerciseComponent</text></svg><svg x="0" y="40.5" width="209" height="40" class="PROBLEM_STATEMENT" fill="#45aaf2"><g><rect width="100%" height="100%" stroke="none" fill="#45aaf2" class="sc-fqkvVR eZlQyU"></rect><text x="10" y="50%" dominant-baseline="middle" text-anchor="start" font-weight="normal" pointer-events="none">PROBLEM_STATEMENT</text></g></svg><svg x="0" y="80.5" width="209" height="30" class="SOLUTION_REPOSITORY" fill="#45aaf2"><g><rect width="100%" height="100%" stroke="none" fill="#45aaf2" class="sc-fqkvVR eZlQyU"></rect><text x="10" y="50%" dominant-baseline="middle" text-anchor="start" font-weight="normal" pointer-events="none">SOLUTION_REPOSITORY</text></g></svg><svg x="0" y="110.5" width="209" height="30" class="TEMPLATE_REPOSITORY" fill="#45aaf2"><g><rect width="100%" height="100%" stroke="none" fill="#45aaf2" class="sc-fqkvVR eZlQyU"></rect><text x="10" y="50%" dominant-baseline="middle" text-anchor="start" font-weight="normal" pointer-events="none">TEMPLATE_REPOSITORY</text></g></svg><svg x="0" y="140.5" width="209" height="30" class="TEXT_REPOSITORY" fill="#45aaf2"><g><rect width="100%" height="100%" stroke="none" fill="#45aaf2" class="sc-fqkvVR eZlQyU"></rect><text x="10" y="50%" dominant-baseline="middle" text-anchor="start" font-weight="normal" pointer-events="none">TEXT_REPOSITORY</text></g></svg><rect width="100%" height="100%" stroke="black" fill="none" class="sc-fqkvVR jAaomD"></rect><path d="M 0 40 H 210" stroke="black" fill="white" class="sc-gEvEer fkqzOi"></path></g></svg><svg x="595" y="335" width="210" height="170" class="ExecutionStage" fill="#45aaf2"><g><rect width="100%" height="40" stroke="none" fill="#45aaf2" class="sc-fqkvVR eZlQyU"></rect><rect y="40" width="100%" height="130" stroke="none" fill="white" class="sc-fqkvVR eDtKfR"></rect><svg height="40"><text x="50%" y="50%" dominant-baseline="middle" text-anchor="middle" font-weight="bold" pointer-events="none">ExecutionStage</text></svg><svg x="0" y="40.5" width="209" height="40" class="NOT_EXECUTED" fill="#45aaf2"><g><rect width="100%" height="100%" stroke="none" fill="#45aaf2" class="sc-fqkvVR eZlQyU"></rect><text x="10" y="50%" dominant-baseline="middle" text-anchor="start" font-weight="normal" pointer-events="none">NOT_EXECUTED</text></g></svg><svg x="0" y="80.5" width="209" height="30" class="IN_PROGRESS" fill="#45aaf2"><g><rect width="100%" height="100%" stroke="none" fill="#45aaf2" class="sc-fqkvVR eZlQyU"></rect><text x="10" y="50%" dominant-baseline="middle" text-anchor="start" font-weight="normal" pointer-events="none">IN_PROGRESS</text></g></svg><svg x="0" y="110.5" width="209" height="30" class="FAILED" fill="#45aaf2"><g><rect width="100%" height="100%" stroke="none" fill="#45aaf2" class="sc-fqkvVR eZlQyU"></rect><text x="10" y="50%" dominant-baseline="middle" text-anchor="start" font-weight="normal" pointer-events="none">FAILED</text></g></svg><svg x="0" y="140.5" width="209" height="30" class="COMPLETE" fill="#45aaf2"><g><rect width="100%" height="100%" stroke="none" fill="#45aaf2" class="sc-fqkvVR eZlQyU"></rect><text x="10" y="50%" dominant-baseline="middle" text-anchor="start" font-weight="normal" pointer-events="none">COMPLETE</text></g></svg><rect width="100%" height="100%" stroke="black" fill="none" class="sc-fqkvVR jAaomD"></rect><path d="M 0 40 H 210" stroke="black" fill="white" class="sc-gEvEer fkqzOi"></path></g></svg><svg x="865" y="15" width="100" height="30" class="Existing" fill="#ffffff"><g><path d="M 0 0 L 85 0 L 100 15 L 100 30 L 0 30 L 0 0 Z" stroke-width="1.2" stroke-miterlimit="10" stroke="black" fill="white" class="sc-gEvEer fkqzOi"></path><path d="M 85 0 L 85 15 L 100 15" stroke-width="1.2" stroke-miterlimit="10" stroke="black" fill="none" class="sc-gEvEer bFSwyf"></path><text x="50" y="15" text-anchor="middle" width="100" height="30" font-weight="bold" pointer-events="none"><tspan x="50" dy="5.5">Existing</tspan></text></g></svg><svg x="865" y="55" width="100" height="30" class="Added" fill="#45aaf2"><g><path d="M 0 0 L 85 0 L 100 15 L 100 30 L 0 30 L 0 0 Z" stroke-width="1.2" stroke-miterlimit="10" stroke="black" fill="#45aaf2" class="sc-gEvEer QgEaz"></path><path d="M 85 0 L 85 15 L 100 15" stroke-width="1.2" stroke-miterlimit="10" stroke="black" fill="none" class="sc-gEvEer bFSwyf"></path><text x="50" y="15" text-anchor="middle" width="100" height="30" font-weight="bold" pointer-events="none"><tspan x="50" dy="5.5">Added</tspan></text></g></svg><svg x="865" y="95" width="100" height="30" class="Modified" fill="#fed330"><g><path d="M 0 0 L 85 0 L 100 15 L 100 30 L 0 30 L 0 0 Z" stroke-width="1.2" stroke-miterlimit="10" stroke="black" fill="#fed330" class="sc-gEvEer clWgYZ"></path><path d="M 85 0 L 85 15 L 100 15" stroke-width="1.2" stroke-miterlimit="10" stroke="black" fill="none" class="sc-gEvEer bFSwyf"></path><text x="50" y="15" text-anchor="middle" width="100" height="30" font-weight="bold" pointer-events="none"><tspan x="50" dy="5.5">Modified</tspan></text></g></svg><svg x="110" y="75" width="10" height="100" class="" fill="#ffffff"><g><marker id="marker-a6912d27-8c14-480e-b915-7793e71b3a70" viewBox="0 0 30 30" markerWidth="30" markerHeight="30" refX="30" refY="15" orient="auto" markerUnits="strokeWidth"><path d="M0,15 L15,22 L30,15 L15,8 z" stroke="black" fill="white" class="sc-gEvEer fkqzOi"></path></marker><polyline points="5 100,5 0" stroke-width="1" marker-end="url(#marker-a6912d27-8c14-480e-b915-7793e71b3a70)" stroke="black" fill="none" class="sc-aXZVg eMElBf"></polyline><text x="5" y="92" dx="5" text-anchor="start" pointer-events="none"></text><text x="5" y="31" dx="5" dy="10" text-anchor="start" pointer-events="none"></text><text x="5" y="92" dx="-5" text-anchor="end" pointer-events="none"></text><text x="5" y="31" dx="-5" dy="10" text-anchor="end" pointer-events="none"></text></g></svg><svg x="110" y="255" width="10" height="50" class="" fill="#ffffff"><g><marker id="marker-d9e8c3eb-b8ba-4537-82be-2197c2e403a9" viewBox="0 0 30 30" markerWidth="30" markerHeight="30" refX="30" refY="15" orient="auto" markerUnits="strokeWidth"><path d="M0,15 L15,22 L30,15 L15,8 z" stroke="black" fill="white" class="sc-gEvEer fkqzOi"></path></marker><polyline points="5 50,5 0" stroke-width="1" marker-end="url(#marker-d9e8c3eb-b8ba-4537-82be-2197c2e403a9)" stroke="black" fill="none" class="sc-aXZVg eMElBf"></polyline><text x="5" y="42" dx="5" text-anchor="start" pointer-events="none"></text><text x="5" y="31" dx="5" dy="10" text-anchor="start" pointer-events="none"></text><text x="5" y="42" dx="-5" text-anchor="end" pointer-events="none"></text><text x="5" y="31" dx="-5" dy="10" text-anchor="end" pointer-events="none"></text></g></svg><svg x="110" y="345" width="10" height="80" class="" fill="#ffffff"><g><marker id="marker-b3be6fc7-89bd-42d2-b27b-54834bb98cf8" viewBox="0 0 30 30" markerWidth="22" markerHeight="30" refX="30" refY="15" orient="auto" markerUnits="strokeWidth"><path d="M0,1 L0,29 L30,15 z" stroke="black" fill="white" class="sc-gEvEer fkqzOi"></path></marker><polyline points="5 80,5 0" stroke-width="1" marker-end="url(#marker-b3be6fc7-89bd-42d2-b27b-54834bb98cf8)" stroke="black" fill="none" class="sc-aXZVg eMElBf"></polyline><text x="5" y="72" dx="5" text-anchor="start" pointer-events="none"></text><text x="5" y="31" dx="5" dy="10" text-anchor="start" pointer-events="none"></text><text x="5" y="72" dx="-5" text-anchor="end" pointer-events="none"></text><text x="5" y="31" dx="-5" dy="10" text-anchor="end" pointer-events="none"></text></g></svg><svg x="215" y="45" width="90" height="31" class="" fill="#ffffff"><g><marker id="marker-04f4a9c6-1810-4a08-a6f3-0a6adc69fbd0" viewBox="0 0 30 30" markerWidth="22" markerHeight="30" refX="30" refY="15" orient="auto" markerUnits="strokeWidth"><path d="M0,1 L0,29 L30,15 z" stroke="black" fill="white" class="sc-gEvEer fkqzOi"></path></marker><polyline points="90 10,0 10" stroke-width="1" marker-end="url(#marker-04f4a9c6-1810-4a08-a6f3-0a6adc69fbd0)" stroke="black" fill="none" class="sc-aXZVg eMElBf"></polyline><text x="82" y="10" dy="21" text-anchor="end" pointer-events="none"></text><text x="31" y="10" dy="21" text-anchor="start" pointer-events="none"></text><text x="82" y="10" dy="-10" text-anchor="end" pointer-events="none"></text><text x="31" y="10" dy="-10" text-anchor="start" pointer-events="none"></text></g></svg><svg x="110" y="345" width="300" height="80" class="" fill="#ffffff"><g><marker id="marker-5d53713b-f1f0-4a41-bb8b-981359cbad65" viewBox="0 0 30 30" markerWidth="22" markerHeight="30" refX="30" refY="15" orient="auto" markerUnits="strokeWidth"><path d="M0,1 L0,29 L30,15 z" stroke="black" fill="white" class="sc-gEvEer fkqzOi"></path></marker><polyline points="295 80,295 40,5 40,5 0" stroke-width="1" marker-end="url(#marker-5d53713b-f1f0-4a41-bb8b-981359cbad65)" stroke="black" fill="none" class="sc-aXZVg eMElBf"></polyline><text x="295" y="72" dx="5" text-anchor="start" pointer-events="none"></text><text x="5" y="31" dx="5" dy="10" text-anchor="start" pointer-events="none"></text><text x="295" y="72" dx="-5" text-anchor="end" pointer-events="none"></text><text x="5" y="31" dx="-5" dy="10" text-anchor="end" pointer-events="none"></text></g></svg><svg x="400" y="315" width="10" height="110" class="" fill="#ffffff"><g><marker id="marker-5e78ff10-1d1c-4701-93be-b0b2b67a04ff" viewBox="0 0 30 30" markerWidth="30" markerHeight="30" refX="30" refY="15" orient="auto" markerUnits="strokeWidth"><path d="M0,15 L15,22 L30,15 L15,8 z" stroke="black" fill="white" class="sc-gEvEer fkqzOi"></path></marker><polyline points="5 0,5 110" stroke-width="1" marker-end="url(#marker-5e78ff10-1d1c-4701-93be-b0b2b67a04ff)" stroke="black" fill="none" class="sc-aXZVg eMElBf"></polyline><text x="5" y="8" dx="5" dy="10" text-anchor="start" pointer-events="none"></text><text x="5" y="79" dx="5" text-anchor="start" pointer-events="none"></text><text x="5" y="8" dx="-5" dy="10" text-anchor="end" pointer-events="none"></text><text x="5" y="79" dx="-5" text-anchor="end" pointer-events="none"></text></g></svg><svg x="505" y="205" width="200" height="61" class="" fill="#ffffff"><g><marker id="marker-ee896a54-0744-471d-819a-541983f49492" viewBox="0 0 30 30" markerWidth="30" markerHeight="30" refX="30" refY="15" orient="auto" markerUnits="strokeWidth"><path d="M0,15 L15,22 L30,15 L15,8 z" stroke="black" fill="white" class="sc-gEvEer fkqzOi"></path></marker><polyline points="195 0,195 40,0 40" stroke-width="1" marker-end="url(#marker-ee896a54-0744-471d-819a-541983f49492)" stroke="black" fill="none" class="sc-aXZVg eMElBf"></polyline><text x="195" y="8" dx="5" dy="10" text-anchor="start" pointer-events="none"></text><text x="31" y="40" dy="21" text-anchor="start" pointer-events="none"></text><text x="195" y="8" dx="-5" dy="10" text-anchor="end" pointer-events="none"></text><text x="31" y="40" dy="-10" text-anchor="start" pointer-events="none"></text></g></svg><svg x="505" y="235" width="200" height="100" class="" fill="#ffffff"><g><marker id="marker-1d6eb234-4d83-46d4-aaa3-c872ee416c5f" viewBox="0 0 30 30" markerWidth="30" markerHeight="30" refX="30" refY="15" orient="auto" markerUnits="strokeWidth"><path d="M0,15 L15,22 L30,15 L15,8 z" stroke="black" fill="white" class="sc-gEvEer fkqzOi"></path></marker><polyline points="195 100,195 10,0 10" stroke-width="1" marker-end="url(#marker-1d6eb234-4d83-46d4-aaa3-c872ee416c5f)" stroke="black" fill="none" class="sc-aXZVg eMElBf"></polyline><text x="195" y="92" dx="5" text-anchor="start" pointer-events="none"></text><text x="31" y="10" dy="21" text-anchor="start" pointer-events="none"></text><text x="195" y="92" dx="-5" text-anchor="end" pointer-events="none"></text><text x="31" y="10" dy="-10" text-anchor="start" pointer-events="none"></text></g></svg></svg>