<svg width="1191" height="551.5" xmlns="http://www.w3.org/2000/svg" xmlns:xlink="http://www.w3.org/1999/xlink" fill="#ffffff"><defs><style>
  text {
    fill: #212529;
    font-family: Helvetica Neue, Helvetica, Arial, sans-serif;
    font-size: 16px;
  }

  marker, text {
    fill-opacity: 1;
  }

  * {
    overflow: visible;
  }
</style></defs><svg x="755" y="15" width="420" height="110" class="CodeEditorInstructorAndEditorContainerComponent" fill="#ffffff"><g><rect width="100%" height="40" stroke="none" fill="white" class="sc-fqkvVR eDtKfR"></rect><rect y="40" width="100%" height="70" stroke="none" fill="white" class="sc-fqkvVR eDtKfR"></rect><svg height="40"><text x="50%" y="50%" dominant-baseline="middle" text-anchor="middle" font-weight="bold" pointer-events="none">CodeEditorInstructorAndEditorContainerComponent</text></svg><svg x="0" y="40.5" width="419" height="40" class="handleChangeNotification()" fill="#ffffff"><g><rect width="100%" height="100%" stroke="none" fill="white" class="sc-fqkvVR eDtKfR"></rect><text x="10" y="50%" dominant-baseline="middle" text-anchor="start" font-weight="normal" pointer-events="none">handleChangeNotification()</text></g></svg><svg x="0" y="80.5" width="419" height="30" class="handleExceptionNotification()" fill="#ffffff"><g><rect width="100%" height="100%" stroke="none" fill="white" class="sc-fqkvVR eDtKfR"></rect><text x="10" y="50%" dominant-baseline="middle" text-anchor="start" font-weight="normal" pointer-events="none">handleExceptionNotification()</text></g></svg><rect width="100%" height="100%" stroke="black" fill="none" class="sc-fqkvVR jAaomD"></rect><path d="M 0 40 H 420" stroke="black" fill="white" class="sc-gEvEer fkqzOi"></path></g></svg><svg x="15" y="25" width="430" height="80" class="IrisCodeEditorChatbotButtonComponent" fill="#ffffff"><g><rect width="100%" height="40" stroke="none" fill="white" class="sc-fqkvVR eDtKfR"></rect><rect y="40" width="100%" height="40" stroke="none" fill="white" class="sc-fqkvVR eDtKfR"></rect><svg height="40"><text x="50%" y="50%" dominant-baseline="middle" text-anchor="middle" font-weight="bold" pointer-events="none">IrisCodeEditorChatbotButtonComponent</text></svg><svg x="0" y="40.5" width="429" height="40" class="dialogRef: MatDialogRefIrisChatbotWidgetComponent" fill="#ffffff"><g><rect width="100%" height="100%" stroke="none" fill="white" class="sc-fqkvVR eDtKfR"></rect><text x="10" y="50%" dominant-baseline="middle" text-anchor="start" font-weight="normal" pointer-events="none">dialogRef: MatDialogRef&lt;IrisChatbotWidgetComponent&gt;</text></g></svg><rect width="100%" height="100%" stroke="black" fill="none" class="sc-fqkvVR jAaomD"></rect><path d="M 0 40 H 430" stroke="black" fill="white" class="sc-gEvEer fkqzOi"></path></g></svg><svg x="905" y="255" width="270" height="110" class="IrisCodeEditorWebsocketService" fill="#ffffff"><g><rect width="100%" height="40" stroke="none" fill="white" class="sc-fqkvVR eDtKfR"></rect><rect y="40" width="100%" height="70" stroke="none" fill="white" class="sc-fqkvVR eDtKfR"></rect><svg height="40"><text x="50%" y="50%" dominant-baseline="middle" text-anchor="middle" font-weight="bold" pointer-events="none">IrisCodeEditorWebsocketService</text></svg><svg x="0" y="40.5" width="269" height="40" class="onStepSuccess()" fill="#ffffff"><g><rect width="100%" height="100%" stroke="none" fill="white" class="sc-fqkvVR eDtKfR"></rect><text x="10" y="50%" dominant-baseline="middle" text-anchor="start" font-weight="normal" pointer-events="none">onStepSuccess()</text></g></svg><svg x="0" y="80.5" width="269" height="30" class="onStepException()" fill="#ffffff"><g><rect width="100%" height="100%" stroke="none" fill="white" class="sc-fqkvVR eDtKfR"></rect><text x="10" y="50%" dominant-baseline="middle" text-anchor="start" font-weight="normal" pointer-events="none">onStepException()</text></g></svg><rect width="100%" height="100%" stroke="black" fill="none" class="sc-fqkvVR jAaomD"></rect><path d="M 0 40 H 270" stroke="black" fill="white" class="sc-gEvEer fkqzOi"></path></g></svg><svg x="15" y="255" width="300" height="110" class="IrisChatbotDialogWidgetComponent" fill="#ffffff"><g><rect width="100%" height="40" stroke="none" fill="white" class="sc-fqkvVR eDtKfR"></rect><rect y="40" width="100%" height="70" stroke="none" fill="white" class="sc-fqkvVR eDtKfR"></rect><svg height="40"><text x="50%" y="50%" dominant-baseline="middle" text-anchor="middle" font-weight="bold" pointer-events="none">IrisChatbotDialogWidgetComponent</text></svg><svg x="0" y="40.5" width="299" height="40" class="notifyStepCompleted()" fill="#ffffff"><g><rect width="100%" height="100%" stroke="none" fill="white" class="sc-fqkvVR eDtKfR"></rect><text x="10" y="50%" dominant-baseline="middle" text-anchor="start" font-weight="normal" pointer-events="none">notifyStepCompleted()</text></g></svg><svg x="0" y="80.5" width="299" height="30" class="notifyStepFailed()" fill="#ffffff"><g><rect width="100%" height="100%" stroke="none" fill="white" class="sc-fqkvVR eDtKfR"></rect><text x="10" y="50%" dominant-baseline="middle" text-anchor="start" font-weight="normal" pointer-events="none">notifyStepFailed()</text></g></svg><rect width="100%" height="100%" stroke="black" fill="none" class="sc-fqkvVR jAaomD"></rect><path d="M 0 40 H 300" stroke="black" fill="white" class="sc-gEvEer fkqzOi"></path></g></svg><svg x="595" y="255" width="250" height="80" class="IrisCodeEditorSessionService" fill="#ffffff"><g><rect width="100%" height="40" stroke="none" fill="white" class="sc-fqkvVR eDtKfR"></rect><rect y="40" width="100%" height="40" stroke="none" fill="white" class="sc-fqkvVR eDtKfR"></rect><svg height="40"><text x="50%" y="50%" dominant-baseline="middle" text-anchor="middle" font-weight="bold" pointer-events="none">IrisCodeEditorSessionService</text></svg><svg x="0" y="40.5" width="249" height="40" class="getCurrentSessionOrCreate()" fill="#ffffff"><g><rect width="100%" height="100%" stroke="none" fill="white" class="sc-fqkvVR eDtKfR"></rect><text x="10" y="50%" dominant-baseline="middle" text-anchor="start" font-weight="normal" pointer-events="none">getCurrentSessionOrCreate()</text></g></svg><rect width="100%" height="100%" stroke="black" fill="none" class="sc-fqkvVR jAaomD"></rect><path d="M 0 40 H 250" stroke="black" fill="white" class="sc-gEvEer fkqzOi"></path></g></svg><svg x="345" y="255" width="200" height="80" class="IrisStateStore" fill="#ffffff"><g><rect width="100%" height="40" stroke="none" fill="white" class="sc-fqkvVR eDtKfR"></rect><rect y="40" width="100%" height="40" stroke="none" fill="white" class="sc-fqkvVR eDtKfR"></rect><svg height="40"><text x="50%" y="50%" dominant-baseline="middle" text-anchor="middle" font-weight="bold" pointer-events="none">IrisStateStore</text></svg><svg x="0" y="40.5" width="199" height="40" class="dispatch()" fill="#ffffff"><g><rect width="100%" height="100%" stroke="none" fill="white" class="sc-fqkvVR eDtKfR"></rect><text x="10" y="50%" dominant-baseline="middle" text-anchor="start" font-weight="normal" pointer-events="none">dispatch()</text></g></svg><rect width="100%" height="100%" stroke="black" fill="none" class="sc-fqkvVR jAaomD"></rect><path d="M 0 40 H 200" stroke="black" fill="white" class="sc-gEvEer fkqzOi"></path></g></svg><svg x="595" y="425" width="280" height="110" class="IrisHttpCodeEditorSessionService" fill="#ffffff"><g><rect width="100%" height="40" stroke="none" fill="white" class="sc-fqkvVR eDtKfR"></rect><rect y="40" width="100%" height="70" stroke="none" fill="white" class="sc-fqkvVR eDtKfR"></rect><svg height="40"><text x="50%" y="50%" dominant-baseline="middle" text-anchor="middle" font-weight="bold" pointer-events="none">IrisHttpCodeEditorSessionService</text></svg><svg x="0" y="40.5" width="279" height="40" class="getCurrentSession()" fill="#ffffff"><g><rect width="100%" height="100%" stroke="none" fill="white" class="sc-fqkvVR eDtKfR"></rect><text x="10" y="50%" dominant-baseline="middle" text-anchor="start" font-weight="normal" pointer-events="none">getCurrentSession()</text></g></svg><svg x="0" y="80.5" width="279" height="30" class="createSession()" fill="#ffffff"><g><rect width="100%" height="100%" stroke="none" fill="white" class="sc-fqkvVR eDtKfR"></rect><text x="10" y="50%" dominant-baseline="middle" text-anchor="start" font-weight="normal" pointer-events="none">createSession()</text></g></svg><rect width="100%" height="100%" stroke="black" fill="none" class="sc-fqkvVR jAaomD"></rect><path d="M 0 40 H 280" stroke="black" fill="white" class="sc-gEvEer fkqzOi"></path></g></svg><svg x="255" y="425" width="290" height="80" class="IrisHttpCodeEditorMessageService" fill="#ffffff"><g><rect width="100%" height="40" stroke="none" fill="white" class="sc-fqkvVR eDtKfR"></rect><rect y="40" width="100%" height="40" stroke="none" fill="white" class="sc-fqkvVR eDtKfR"></rect><svg height="40"><text x="50%" y="50%" dominant-baseline="middle" text-anchor="middle" font-weight="bold" pointer-events="none">IrisHttpCodeEditorMessageService</text></svg><svg x="0" y="40.5" width="289" height="40" class="executePlanStep()" fill="#ffffff"><g><rect width="100%" height="100%" stroke="none" fill="white" class="sc-fqkvVR eDtKfR"></rect><text x="10" y="50%" dominant-baseline="middle" text-anchor="start" font-weight="normal" pointer-events="none">executePlanStep()</text></g></svg><rect width="100%" height="100%" stroke="black" fill="none" class="sc-fqkvVR jAaomD"></rect><path d="M 0 40 H 290" stroke="black" fill="white" class="sc-gEvEer fkqzOi"></path></g></svg><svg x="1035" y="125" width="10" height="130" class="" fill="#ffffff"><g><marker id="marker-e474b89a-8e83-4706-85f3-9d1c667e445f" viewBox="0 0 30 30" markerWidth="30" markerHeight="30" refX="30" refY="15" orient="auto" markerUnits="strokeWidth"><path d="M0,15 L15,22 L30,15 L15,8 z" stroke="black" fill="white" class="sc-gEvEer fkqzOi"></path></marker><polyline points="5 130,5 0" stroke-width="1" marker-end="url(#marker-e474b89a-8e83-4706-85f3-9d1c667e445f)" stroke="black" fill="none" class="sc-aXZVg eMElBf"></polyline><text x="5" y="122" dx="5" text-anchor="start" pointer-events="none"></text><text x="5" y="31" dx="5" dy="10" text-anchor="start" pointer-events="none"></text><text x="5" y="122" dx="-5" text-anchor="end" pointer-events="none"></text><text x="5" y="31" dx="-5" dy="10" text-anchor="end" pointer-events="none"></text></g></svg><svg x="445" y="55" width="310" height="31" class="" fill="#ffffff"><g><polyline points="310 10,0 10" stroke-width="1" marker-end="url(#marker-29fcbbc7-5ef0-45d6-b8eb-dd849173b20a)" stroke="black" fill="none" class="sc-aXZVg eMElBf"></polyline><text x="302" y="10" dy="21" text-anchor="end" pointer-events="none"></text><text x="8" y="10" dy="21" text-anchor="start" pointer-events="none"></text><text x="302" y="10" dy="-10" text-anchor="end" pointer-events="none"></text><text x="8" y="10" dy="-10" text-anchor="start" pointer-events="none"></text></g></svg><svg x="390" y="105" width="10" height="150" class="" fill="#ffffff"><g><marker id="marker-85b11ad3-c866-4788-8319-eacaa5b4f988" viewBox="0 0 30 30" markerWidth="30" markerHeight="30" refX="30" refY="15" orient="auto" markerUnits="strokeWidth"><path d="M0,15 L15,22 L30,15 L15,8 z" stroke="black" fill="white" class="sc-gEvEer fkqzOi"></path></marker><polyline points="5 150,5 0" stroke-width="1" marker-end="url(#marker-85b11ad3-c866-4788-8319-eacaa5b4f988)" stroke="black" fill="none" class="sc-aXZVg eMElBf"></polyline><text x="5" y="142" dx="5" text-anchor="start" pointer-events="none"></text><text x="5" y="31" dx="5" dy="10" text-anchor="start" pointer-events="none"></text><text x="5" y="142" dx="-5" text-anchor="end" pointer-events="none"></text><text x="5" y="31" dx="-5" dy="10" text-anchor="end" pointer-events="none"></text></g></svg><svg x="225" y="105" width="500" height="150" class="" fill="#ffffff"><g><marker id="marker-4f347729-9017-40dd-99ad-4fc770b1c249" viewBox="0 0 30 30" markerWidth="30" markerHeight="30" refX="30" refY="15" orient="auto" markerUnits="strokeWidth"><path d="M0,15 L15,22 L30,15 L15,8 z" stroke="black" fill="white" class="sc-gEvEer fkqzOi"></path></marker><polyline points="495 150,495 75,5 75,5 0" stroke-width="1" marker-end="url(#marker-4f347729-9017-40dd-99ad-4fc770b1c249)" stroke="black" fill="none" class="sc-aXZVg eMElBf"></polyline><text x="495" y="142" dx="5" text-anchor="start" pointer-events="none"></text><text x="5" y="31" dx="5" dy="10" text-anchor="start" pointer-events="none"></text><text x="495" y="142" dx="-5" text-anchor="end" pointer-events="none"></text><text x="5" y="31" dx="-5" dy="10" text-anchor="end" pointer-events="none"></text></g></svg><svg x="225" y="105" width="820" height="150" class="" fill="#ffffff"><g><marker id="marker-eab200f2-33bf-4eef-a9ac-cc6531db6dc0" viewBox="0 0 30 30" markerWidth="30" markerHeight="30" refX="30" refY="15" orient="auto" markerUnits="strokeWidth"><path d="M0,15 L15,22 L30,15 L15,8 z" stroke="black" fill="white" class="sc-gEvEer fkqzOi"></path></marker><polyline points="815 150,815 75,5 75,5 0" stroke-width="1" marker-end="url(#marker-eab200f2-33bf-4eef-a9ac-cc6531db6dc0)" stroke="black" fill="none" class="sc-aXZVg eMElBf"></polyline><text x="815" y="142" dx="5" text-anchor="start" pointer-events="none"></text><text x="5" y="31" dx="5" dy="10" text-anchor="start" pointer-events="none"></text><text x="815" y="142" dx="-5" text-anchor="end" pointer-events="none"></text><text x="5" y="31" dx="-5" dy="10" text-anchor="end" pointer-events="none"></text></g></svg><svg x="160" y="105" width="10" height="150" class="" fill="#ffffff"><g><polyline points="5 150,5 0" stroke-width="1" marker-end="url(#marker-089895df-c98b-4e7f-a16e-fd4eead0b3d6)" stroke="black" fill="none" class="sc-aXZVg eMElBf"></polyline><text x="5" y="142" dx="5" text-anchor="start" pointer-events="none"></text><text x="5" y="8" dx="5" dy="10" text-anchor="start" pointer-events="none"></text><text x="5" y="142" dx="-5" text-anchor="end" pointer-events="none"></text><text x="5" y="8" dx="-5" dy="10" text-anchor="end" pointer-events="none"></text></g></svg><svg x="715" y="335" width="10" height="90" class="" fill="#ffffff"><g><marker id="marker-601ef45d-cfca-4148-8d10-aafae65474ac" viewBox="0 0 30 30" markerWidth="30" markerHeight="30" refX="30" refY="15" orient="auto" markerUnits="strokeWidth"><path d="M0,15 L15,22 L30,15 L15,8 z" stroke="black" fill="white" class="sc-gEvEer fkqzOi"></path></marker><polyline points="5 90,5 0" stroke-width="1" marker-end="url(#marker-601ef45d-cfca-4148-8d10-aafae65474ac)" stroke="black" fill="none" class="sc-aXZVg eMElBf"></polyline><text x="5" y="82" dx="5" text-anchor="start" pointer-events="none"></text><text x="5" y="31" dx="5" dy="10" text-anchor="start" pointer-events="none"></text><text x="5" y="82" dx="-5" text-anchor="end" pointer-events="none"></text><text x="5" y="31" dx="-5" dy="10" text-anchor="end" pointer-events="none"></text></g></svg><svg x="395" y="335" width="330" height="90" class="" fill="#ffffff"><g><marker id="marker-4db22b2b-69a9-4b52-aecc-0e4584c225fb" viewBox="0 0 30 30" markerWidth="30" markerHeight="30" refX="30" refY="15" orient="auto" markerUnits="strokeWidth"><path d="M0,15 L15,22 L30,15 L15,8 z" stroke="black" fill="white" class="sc-gEvEer fkqzOi"></path></marker><polyline points="5 90,5 45,325 45,325 0" stroke-width="1" marker-end="url(#marker-4db22b2b-69a9-4b52-aecc-0e4584c225fb)" stroke="black" fill="none" class="sc-aXZVg eMElBf"></polyline><text x="5" y="82" dx="5" text-anchor="start" pointer-events="none"></text><text x="325" y="31" dx="5" dy="10" text-anchor="start" pointer-events="none"></text><text x="5" y="82" dx="-5" text-anchor="end" pointer-events="none"></text><text x="325" y="31" dx="-5" dy="10" text-anchor="end" pointer-events="none"></text></g></svg><svg x="545" y="285" width="50" height="31" class="" fill="#ffffff"><g><marker id="marker-7b6ff564-ba40-4efd-900f-41c40e08c08c" viewBox="0 0 30 30" markerWidth="30" markerHeight="30" refX="30" refY="15" orient="auto" markerUnits="strokeWidth"><path d="M0,15 L15,22 L30,15 L15,8 z" stroke="black" fill="white" class="sc-gEvEer fkqzOi"></path></marker><polyline points="0 10,50 10" stroke-width="1" marker-end="url(#marker-7b6ff564-ba40-4efd-900f-41c40e08c08c)" stroke="black" fill="none" class="sc-aXZVg eMElBf"></polyline><text x="8" y="10" dy="21" text-anchor="start" pointer-events="none"></text><text x="19" y="10" dy="21" text-anchor="end" pointer-events="none"></text><text x="8" y="10" dy="-10" text-anchor="start" pointer-events="none"></text><text x="19" y="10" dy="-10" text-anchor="end" pointer-events="none"></text></g></svg></svg>