<svg width="981" height="531.5" xmlns="http://www.w3.org/2000/svg" xmlns:xlink="http://www.w3.org/1999/xlink" fill="#ffffff"><defs><style>
  text {
    fill: #212529;
    font-family: Helvetica Neue, Helvetica, Arial, sans-serif;
    font-size: 16px;
  }

  marker, text {
    fill-opacity: 1;
  }

  * {
    overflow: visible;
  }
</style></defs><svg x="315" y="175" width="310" height="170" class="IrisCodeEditorSessionService" fill="#ffffff"><g><rect width="100%" height="40" stroke="none" fill="white" class="sc-fqkvVR eDtKfR"></rect><rect y="40" width="100%" height="130" stroke="none" fill="white" class="sc-fqkvVR eDtKfR"></rect><svg height="40"><text x="50%" y="50%" dominant-baseline="middle" text-anchor="middle" font-weight="bold" pointer-events="none">IrisCodeEditorSessionService</text></svg><svg x="0" y="40.5" width="309" height="40" class="requestAndHandleResponse()" fill="#ffffff"><g><rect width="100%" height="100%" stroke="none" fill="white" class="sc-fqkvVR eDtKfR"></rect><text x="10" y="50%" dominant-baseline="middle" text-anchor="start" font-weight="normal" pointer-events="none">requestAndHandleResponse()</text></g></svg><svg x="0" y="80.5" width="309" height="30" class="checkHasAccessToIrisSession()" fill="#ffffff"><g><rect width="100%" height="100%" stroke="none" fill="white" class="sc-fqkvVR eDtKfR"></rect><text x="10" y="50%" dominant-baseline="middle" text-anchor="start" font-weight="normal" pointer-events="none">checkHasAccessToIrisSession()</text></g></svg><svg x="0" y="110.5" width="309" height="30" class="checkIsIrisActivated()" fill="#ffffff"><g><rect width="100%" height="100%" stroke="none" fill="white" class="sc-fqkvVR eDtKfR"></rect><text x="10" y="50%" dominant-baseline="middle" text-anchor="start" font-weight="normal" pointer-events="none">checkIsIrisActivated()</text></g></svg><svg x="0" y="140.5" width="309" height="30" class="requestChangesToExerciseComponent()" fill="#ffffff"><g><rect width="100%" height="100%" stroke="none" fill="white" class="sc-fqkvVR eDtKfR"></rect><text x="10" y="50%" dominant-baseline="middle" text-anchor="start" font-weight="normal" pointer-events="none">requestChangesToExerciseComponent()</text></g></svg><rect width="100%" height="100%" stroke="black" fill="none" class="sc-fqkvVR jAaomD"></rect><path d="M 0 40 H 310" stroke="black" fill="white" class="sc-gEvEer fkqzOi"></path></g></svg><svg x="335" y="405" width="270" height="110" class="IrisCodeEditorWebsocketService" fill="#ffffff"><g><rect width="100%" height="40" stroke="none" fill="white" class="sc-fqkvVR eDtKfR"></rect><rect y="40" width="100%" height="70" stroke="none" fill="white" class="sc-fqkvVR eDtKfR"></rect><svg height="40"><text x="50%" y="50%" dominant-baseline="middle" text-anchor="middle" font-weight="bold" pointer-events="none">IrisCodeEditorWebsocketService</text></svg><svg x="0" y="40.5" width="269" height="40" class="notifyStepSuccess()" fill="#ffffff"><g><rect width="100%" height="100%" stroke="none" fill="white" class="sc-fqkvVR eDtKfR"></rect><text x="10" y="50%" dominant-baseline="middle" text-anchor="start" font-weight="normal" pointer-events="none">notifyStepSuccess()</text></g></svg><svg x="0" y="80.5" width="269" height="30" class="notifyStepException()" fill="#ffffff"><g><rect width="100%" height="100%" stroke="none" fill="white" class="sc-fqkvVR eDtKfR"></rect><text x="10" y="50%" dominant-baseline="middle" text-anchor="start" font-weight="normal" pointer-events="none">notifyStepException()</text></g></svg><rect width="100%" height="100%" stroke="black" fill="none" class="sc-fqkvVR jAaomD"></rect><path d="M 0 40 H 270" stroke="black" fill="white" class="sc-gEvEer fkqzOi"></path></g></svg><svg x="35" y="395" width="200" height="120" class="IrisWebsocketService" fill="#ffffff"><g><rect width="100%" height="50" stroke="none" fill="white" class="sc-fqkvVR eDtKfR"></rect><rect y="50" width="100%" height="70" stroke="none" fill="white" class="sc-fqkvVR eDtKfR"></rect><svg height="50"><text x="50%" y="50%" dominant-baseline="middle" text-anchor="middle" font-weight="bold" pointer-events="none"><tspan x="50%" dy="-8" text-anchor="middle" font-size="85%">«abstract»</tspan><tspan x="50%" dy="18" text-anchor="middle" font-style="italic">IrisWebsocketService</tspan></text></svg><svg x="0" y="50.5" width="199" height="40" class="sendMessage()" fill="#ffffff"><g><rect width="100%" height="100%" stroke="none" fill="white" class="sc-fqkvVR eDtKfR"></rect><text x="10" y="50%" dominant-baseline="middle" text-anchor="start" font-weight="normal" pointer-events="none">sendMessage()</text></g></svg><svg x="0" y="90.5" width="199" height="30" class="sendException()" fill="#ffffff"><g><rect width="100%" height="100%" stroke="none" fill="white" class="sc-fqkvVR eDtKfR"></rect><text x="10" y="50%" dominant-baseline="middle" text-anchor="start" font-weight="normal" pointer-events="none">sendException()</text></g></svg><rect width="100%" height="100%" stroke="black" fill="none" class="sc-fqkvVR jAaomD"></rect><path d="M 0 50 H 200" stroke="black" fill="white" class="sc-gEvEer fkqzOi"></path></g></svg><svg x="745" y="435" width="200" height="70" class="IrisConnectorService" fill="#ffffff"><g><rect width="100%" height="40" stroke="none" fill="white" class="sc-fqkvVR eDtKfR"></rect><rect y="40" width="100%" height="30" stroke="none" fill="white" class="sc-fqkvVR eDtKfR"></rect><svg height="40"><text x="50%" y="50%" dominant-baseline="middle" text-anchor="middle" font-weight="bold" pointer-events="none">IrisConnectorService</text></svg><svg x="0" y="40.5" width="199" height="30" class="sendRequest()" fill="#ffffff"><g><rect width="100%" height="100%" stroke="none" fill="white" class="sc-fqkvVR eDtKfR"></rect><text x="10" y="50%" dominant-baseline="middle" text-anchor="start" font-weight="normal" pointer-events="none">sendRequest()</text></g></svg><rect width="100%" height="100%" stroke="black" fill="none" class="sc-fqkvVR jAaomD"></rect><path d="M 0 40 H 200" stroke="black" fill="white" class="sc-gEvEer fkqzOi"></path></g></svg><svg x="335" y="15" width="270" height="70" class="IrisCodeEditorSessionRepository" fill="#ffffff"><g><rect width="100%" height="40" stroke="none" fill="white" class="sc-fqkvVR eDtKfR"></rect><rect y="40" width="100%" height="30" stroke="none" fill="white" class="sc-fqkvVR eDtKfR"></rect><svg height="40"><text x="50%" y="50%" dominant-baseline="middle" text-anchor="middle" font-weight="bold" pointer-events="none">IrisCodeEditorSessionRepository</text></svg><svg x="0" y="40.5" width="269" height="30" class="findByExerciseIdAndUserId()" fill="#ffffff"><g><rect width="100%" height="100%" stroke="none" fill="white" class="sc-fqkvVR eDtKfR"></rect><text x="10" y="50%" dominant-baseline="middle" text-anchor="start" font-weight="normal" pointer-events="none">findByExerciseIdAndUserId()</text></g></svg><rect width="100%" height="100%" stroke="black" fill="none" class="sc-fqkvVR jAaomD"></rect><path d="M 0 40 H 270" stroke="black" fill="white" class="sc-gEvEer fkqzOi"></path></g></svg><svg x="15" y="15" width="270" height="80" class="IrisMessageService" fill="#ffffff"><g><rect width="100%" height="40" stroke="none" fill="white" class="sc-fqkvVR eDtKfR"></rect><rect y="40" width="100%" height="40" stroke="none" fill="white" class="sc-fqkvVR eDtKfR"></rect><svg height="40"><text x="50%" y="50%" dominant-baseline="middle" text-anchor="middle" font-weight="bold" pointer-events="none">IrisMessageService</text></svg><svg x="0" y="40.5" width="269" height="40" class="saveMessage()" fill="#ffffff"><g><rect width="100%" height="100%" stroke="none" fill="white" class="sc-fqkvVR eDtKfR"></rect><text x="10" y="50%" dominant-baseline="middle" text-anchor="start" font-weight="normal" pointer-events="none">saveMessage()</text></g></svg><rect width="100%" height="100%" stroke="black" fill="none" class="sc-fqkvVR jAaomD"></rect><path d="M 0 40 H 270" stroke="black" fill="white" class="sc-gEvEer fkqzOi"></path></g></svg><svg x="25" y="215" width="230" height="80" class="IrisSettingsService" fill="#ffffff"><g><rect width="100%" height="40" stroke="none" fill="white" class="sc-fqkvVR eDtKfR"></rect><rect y="40" width="100%" height="40" stroke="none" fill="white" class="sc-fqkvVR eDtKfR"></rect><svg height="40"><text x="50%" y="50%" dominant-baseline="middle" text-anchor="middle" font-weight="bold" pointer-events="none">IrisSettingsService</text></svg><svg x="0" y="40.5" width="229" height="40" class="getCombinedIrisSettingsFor()" fill="#ffffff"><g><rect width="100%" height="100%" stroke="none" fill="white" class="sc-fqkvVR eDtKfR"></rect><text x="10" y="50%" dominant-baseline="middle" text-anchor="start" font-weight="normal" pointer-events="none">getCombinedIrisSettingsFor()</text></g></svg><rect width="100%" height="100%" stroke="black" fill="none" class="sc-fqkvVR jAaomD"></rect><path d="M 0 40 H 230" stroke="black" fill="white" class="sc-gEvEer fkqzOi"></path></g></svg><svg x="695" y="185" width="260" height="140" class="IrisExercisePlanStepRepository " fill="#ffffff"><g><rect width="100%" height="40" stroke="none" fill="white" class="sc-fqkvVR eDtKfR"></rect><rect y="40" width="100%" height="100" stroke="none" fill="white" class="sc-fqkvVR eDtKfR"></rect><svg height="40"><text x="50%" y="50%" dominant-baseline="middle" text-anchor="middle" font-weight="bold" pointer-events="none">IrisExercisePlanStepRepository </text></svg><svg x="0" y="40.5" width="259" height="40" class="setInProgress()" fill="#ffffff"><g><rect width="100%" height="100%" stroke="none" fill="white" class="sc-fqkvVR eDtKfR"></rect><text x="10" y="50%" dominant-baseline="middle" text-anchor="start" font-weight="normal" pointer-events="none">setInProgress()</text></g></svg><svg x="0" y="80.5" width="259" height="30" class="setCompleted()" fill="#ffffff"><g><rect width="100%" height="100%" stroke="none" fill="white" class="sc-fqkvVR eDtKfR"></rect><text x="10" y="50%" dominant-baseline="middle" text-anchor="start" font-weight="normal" pointer-events="none">setCompleted()</text></g></svg><svg x="0" y="110.5" width="259" height="30" class="setFailed()" fill="#ffffff"><g><rect width="100%" height="100%" stroke="none" fill="white" class="sc-fqkvVR eDtKfR"></rect><text x="10" y="50%" dominant-baseline="middle" text-anchor="start" font-weight="normal" pointer-events="none">setFailed()</text></g></svg><rect width="100%" height="100%" stroke="black" fill="none" class="sc-fqkvVR jAaomD"></rect><path d="M 0 40 H 260" stroke="black" fill="white" class="sc-gEvEer fkqzOi"></path></g></svg><svg x="675" y="15" width="290" height="80" class="IrisSessionRepository" fill="#ffffff"><g><rect width="100%" height="40" stroke="none" fill="white" class="sc-fqkvVR eDtKfR"></rect><rect y="40" width="100%" height="40" stroke="none" fill="white" class="sc-fqkvVR eDtKfR"></rect><svg height="40"><text x="50%" y="50%" dominant-baseline="middle" text-anchor="middle" font-weight="bold" pointer-events="none">IrisSessionRepository</text></svg><svg x="0" y="40.5" width="289" height="40" class="findByIdWithMessagesAndContents()" fill="#ffffff"><g><rect width="100%" height="100%" stroke="none" fill="white" class="sc-fqkvVR eDtKfR"></rect><text x="10" y="50%" dominant-baseline="middle" text-anchor="start" font-weight="normal" pointer-events="none">findByIdWithMessagesAndContents()</text></g></svg><rect width="100%" height="100%" stroke="black" fill="none" class="sc-fqkvVR jAaomD"></rect><path d="M 0 40 H 290" stroke="black" fill="white" class="sc-gEvEer fkqzOi"></path></g></svg><svg x="465" y="345" width="10" height="60" class="" fill="#ffffff"><g><marker id="marker-acb91c27-76cb-46d0-abb9-e605e529b180" viewBox="0 0 30 30" markerWidth="30" markerHeight="30" refX="30" refY="15" orient="auto" markerUnits="strokeWidth"><path d="M0,15 L15,22 L30,15 L15,8 z" stroke="black" fill="white" class="sc-gEvEer fkqzOi"></path></marker><polyline points="5 60,5 0" stroke-width="1" marker-end="url(#marker-acb91c27-76cb-46d0-abb9-e605e529b180)" stroke="black" fill="none" class="sc-aXZVg eMElBf"></polyline><text x="5" y="52" dx="5" text-anchor="start" pointer-events="none"></text><text x="5" y="31" dx="5" dy="10" text-anchor="start" pointer-events="none"></text><text x="5" y="52" dx="-5" text-anchor="end" pointer-events="none"></text><text x="5" y="31" dx="-5" dy="10" text-anchor="end" pointer-events="none"></text></g></svg><svg x="465" y="345" width="385" height="90" class="" fill="#ffffff"><g><marker id="marker-411e99c9-16d1-44ff-9cc6-25e274a304b1" viewBox="0 0 30 30" markerWidth="30" markerHeight="30" refX="30" refY="15" orient="auto" markerUnits="strokeWidth"><path d="M0,15 L15,22 L30,15 L15,8 z" stroke="black" fill="white" class="sc-gEvEer fkqzOi"></path></marker><polyline points="380 90,380 45,5 45,5 0" stroke-width="1" marker-end="url(#marker-411e99c9-16d1-44ff-9cc6-25e274a304b1)" stroke="black" fill="none" class="sc-aXZVg eMElBf"></polyline><text x="380" y="82" dx="5" text-anchor="start" pointer-events="none"></text><text x="5" y="31" dx="5" dy="10" text-anchor="start" pointer-events="none"></text><text x="380" y="82" dx="-5" text-anchor="end" pointer-events="none"></text><text x="5" y="31" dx="-5" dy="10" text-anchor="end" pointer-events="none"></text></g></svg><svg x="255" y="245" width="60" height="31" class="" fill="#ffffff"><g><polyline points="60 10,0 10" stroke-width="1" marker-end="url(#marker-bffa5f43-694e-484b-8588-2d35d308f586)" stroke="black" fill="none" class="sc-aXZVg eMElBf"></polyline><text x="52" y="10" dy="21" text-anchor="end" pointer-events="none"></text><text x="8" y="10" dy="21" text-anchor="start" pointer-events="none"></text><text x="52" y="10" dy="-10" text-anchor="end" pointer-events="none"></text><text x="8" y="10" dy="-10" text-anchor="start" pointer-events="none"></text></g></svg><svg x="465" y="85" width="10" height="90" class="" fill="#ffffff"><g><polyline points="5 90,5 0" stroke-width="1" marker-end="url(#marker-ecda8b1c-5d2a-4a47-adc8-505a566a354d)" stroke="black" fill="none" class="sc-aXZVg eMElBf"></polyline><text x="5" y="82" dx="5" text-anchor="start" pointer-events="none"></text><text x="5" y="8" dx="5" dy="10" text-anchor="start" pointer-events="none"></text><text x="5" y="82" dx="-5" text-anchor="end" pointer-events="none"></text><text x="5" y="8" dx="-5" dy="10" text-anchor="end" pointer-events="none"></text></g></svg><svg x="465" y="95" width="360" height="80" class="" fill="#ffffff"><g><polyline points="5 80,5 40,355 40,355 0" stroke-width="1" marker-end="url(#marker-f609298b-96a8-4780-915b-b4a17e64f913)" stroke="black" fill="none" class="sc-aXZVg eMElBf"></polyline><text x="5" y="72" dx="5" text-anchor="start" pointer-events="none"></text><text x="355" y="8" dx="5" dy="10" text-anchor="start" pointer-events="none"></text><text x="5" y="72" dx="-5" text-anchor="end" pointer-events="none"></text><text x="355" y="8" dx="-5" dy="10" text-anchor="end" pointer-events="none"></text></g></svg><svg x="625" y="245" width="70" height="31" class="" fill="#ffffff"><g><polyline points="0 10,70 10" stroke-width="1" marker-end="url(#marker-a3b3fb95-e9e6-4bb7-95e1-37ce56921b59)" stroke="black" fill="none" class="sc-aXZVg eMElBf"></polyline><text x="8" y="10" dy="21" text-anchor="start" pointer-events="none"></text><text x="62" y="10" dy="21" text-anchor="end" pointer-events="none"></text><text x="8" y="10" dy="-10" text-anchor="start" pointer-events="none"></text><text x="62" y="10" dy="-10" text-anchor="end" pointer-events="none"></text></g></svg><svg x="235" y="450" width="100" height="31" class="" fill="#ffffff"><g><marker id="marker-37e6a7f2-6848-4174-abaa-7bffcb9de6ae" viewBox="0 0 30 30" markerWidth="22" markerHeight="30" refX="30" refY="15" orient="auto" markerUnits="strokeWidth"><path d="M0,1 L0,29 L30,15 z" stroke="black" fill="white" class="sc-gEvEer fkqzOi"></path></marker><polyline points="100 10,0 10" stroke-width="1" marker-end="url(#marker-37e6a7f2-6848-4174-abaa-7bffcb9de6ae)" stroke="black" fill="none" class="sc-aXZVg eMElBf"></polyline><text x="92" y="10" dy="21" text-anchor="end" pointer-events="none"></text><text x="31" y="10" dy="21" text-anchor="start" pointer-events="none"></text><text x="92" y="10" dy="-10" text-anchor="end" pointer-events="none"></text><text x="31" y="10" dy="-10" text-anchor="start" pointer-events="none"></text></g></svg><svg x="145" y="95" width="330" height="80" class="" fill="#ffffff"><g><polyline points="325 80,325 40,5 40,5 0" stroke-width="1" marker-end="url(#marker-f9345efb-89b8-4a48-90ee-eb38f64d6577)" stroke="black" fill="none" class="sc-aXZVg eMElBf"></polyline><text x="325" y="72" dx="5" text-anchor="start" pointer-events="none"></text><text x="5" y="8" dx="5" dy="10" text-anchor="start" pointer-events="none"></text><text x="325" y="72" dx="-5" text-anchor="end" pointer-events="none"></text><text x="5" y="8" dx="-5" dy="10" text-anchor="end" pointer-events="none"></text></g></svg></svg>